<svg width="58" height="58" viewBox="0 0 58 58" fill="none" xmlns="http://www.w3.org/2000/svg">
<path d="M48.9375 0H9.0625C4.05742 0 0 4.05742 0 9.0625V48.9375C0 53.9426 4.05742 58 9.0625 58H48.9375C53.9426 58 58 53.9426 58 48.9375V9.0625C58 4.05742 53.9426 0 48.9375 0Z" fill="#2867B2"/>
<path d="M21.025 43.5H14.8625V24.1063H21.025V43.5ZM17.9438 21.3875C15.95 21.3875 14.5 19.9375 14.5 17.9437C14.5 15.95 16.1313 14.5 17.9438 14.5C19.9375 14.5 21.3875 15.95 21.3875 17.9437C21.3875 19.9375 19.9375 21.3875 17.9438 21.3875ZM43.5 43.5H37.3375V32.9875C37.3375 29.9063 36.0687 29 34.2562 29C32.4437 29 30.6312 30.45 30.6312 33.1687V43.5H24.4688V24.1063H30.2687V26.825C30.8125 25.5563 32.9875 23.5625 36.0687 23.5625C39.5125 23.5625 43.1375 25.5562 43.1375 31.5375V43.5H43.5Z" fill="white"/>
</svg>
